<svg width="160" height="206" viewBox="0 0 160 206" fill="none" xmlns="http://www.w3.org/2000/svg">
<path d="M29.3764 139.869C36.5256 137.558 36.3098 134.712 34.4808 127.886L22.1068 81.7054C20.6926 76.4276 19.617 73.68 15.7874 73.4617L11.8642 74.5129L29.3764 139.869Z" fill="#D2B686"/>
<path d="M61.1216 131.326C64.5521 130.406 67.6057 129.136 69.3215 127.658C76.7173 121.622 80.7229 114.967 78.2306 99.9661L65.8063 79.4239C61.853 72.9033 59.9817 70.9157 51.1385 76.2644L50.5523 76.6101L50.2796 76.1552L85.7659 54.6922L43.0863 66.1281C39.9012 68.2449 40.3916 71.1304 41.8058 76.4082L54.1845 122.606C56.6027 131.631 57.1809 132.381 61.1216 131.326Z" fill="#D2B686"/>
<path d="M90.3098 191.913C89.9185 190.453 87.8597 188.61 84.1692 185.111L66.5742 168.141L65.1967 172.923C63.3484 179.395 62.1972 185.021 63.4605 189.736C64.2713 192.762 67.3317 198.202 72.8654 198.869L88.8922 194.574C90.3856 193.533 90.4842 192.564 90.3098 191.913Z" fill="#D2B686"/>
<path d="M115.83 55.7062L133.235 84.4925C137.833 92.0847 139.461 95.3443 134.467 103.659C131.91 107.908 127.157 111.915 121.817 115.138C118.944 116.869 115.916 118.378 112.954 119.568C112.759 120.035 112.75 120.565 112.915 121.181C113.396 122.975 115.328 125.399 118.012 128.168L132.999 143.989L135.22 134.475C136.31 129.959 137.918 123.645 136.725 119.194C135.047 112.931 129.223 114.134 126.607 114.363L126.47 113.853L142.215 109.634L124.703 44.2778L111.755 47.7473C112.497 50.094 114.003 52.6885 115.83 55.7062Z" fill="#D2B686"/>
<path d="M120.982 176.058L114.552 152.061L90.5672 130.525C86.6847 137.147 83.8172 145.797 81.6801 151.121L80.6834 153.594L110.319 181.932C113.35 184.872 115.906 186.318 118.461 186.633L119.692 186.303C122.842 184.195 122.387 181.3 120.982 176.058Z" fill="#D2B686"/>
<path d="M62.3548 180.472L66.0105 167.727L41.165 143.895C37.7564 140.603 35.8879 139.048 32.4523 139.667L29.532 140.45L47.0442 205.806L50.9145 204.769C57.2526 200.205 59.8708 189.076 62.3548 180.472Z" fill="#D2B686"/>
<path d="M84.9839 67.8178L106.052 102.675C110.692 110.35 112.098 112.292 116.913 111.964C119.511 111.739 123.466 110.171 126.973 108.062C130.218 106.098 133.25 103.551 134.64 101.35C138.243 95.4443 136.992 92.2535 132.353 84.578L115.143 56.0977C113.148 52.8045 111.419 50.0812 109.511 48.3108L87.6964 54.156C80.3508 58.9715 81.2574 61.6512 84.9839 67.8178Z" fill="#D2B686"/>
<path d="M138.028 125.464L133.563 144.479L140.615 170.797C142.02 176.04 143.073 178.774 146.842 179.047L159.861 175.558L143.084 112.946C141.008 115.614 139.443 119.484 138.028 125.464Z" fill="#D2B686"/>
<path d="M65.9263 130.679C61.8804 132.046 61.582 133.748 61.8507 134.75C62.2656 136.299 64.7482 138.386 68.2143 141.681L80.2829 153.155C82.4029 147.345 84.6817 141.775 83.211 136.286C81.2547 128.985 76.7392 128.178 73.0689 128.765L65.9263 130.679Z" fill="#D2B686"/>
<path d="M79.9304 102.792L85.8134 124.747L96.369 121.919C91.1186 120.761 88.633 117.185 85.72 112.365L79.9304 102.792Z" fill="#D2B686"/>
<path d="M113.116 36.7104C118.988 28.3677 108.59 15.1076 91.2434 11.3083C78.9601 8.60354 73.7288 32.2172 71.7112 46.2208C71.0634 46.055 70.3911 46.0088 69.699 46.1L63.7483 46.9026C53.428 34.5645 35.1199 15.9194 24.8376 24.4821C9.91508 36.909 7.42815 54.7906 18.1151 59.771C26.9625 63.8679 42.3276 65.4075 60.0631 60.5233C60.9913 62.6504 63.2408 64.0086 65.6607 63.6808L71.5913 61.6768C74.5051 61.2921 76.9048 59.7628 76.5248 56.8666L76.3283 55.4297C94.8946 52.661 107.783 44.3239 113.116 36.7104ZM58.835 52.9141L58.9013 53.4432C47.3154 49.1185 36.9064 43.0643 31.0384 38.5462C24.5481 33.535 25.542 28.7998 34.0759 29.7564C40.3699 30.4457 52.8652 43.6529 59.061 50.5909C58.8214 51.3151 58.7284 52.0942 58.835 52.9141ZM74.8688 48.5048C76.1529 43.1639 81.5716 22.2907 87.6887 19.294C94.6863 15.8539 97.8562 19.6619 94.5389 26.0001C91.3294 32.1774 84.3165 41.5422 75.2379 49.1789C75.1145 48.9292 75.018 48.7099 74.8688 48.5048Z" fill="#D2B686"/>
</svg>
